<svg xmlns="http://www.w3.org/2000/svg" xmlns:xlink="http://www.w3.org/1999/xlink" width="164.101" height="158.102" viewBox="0 0 164.101 158.102">
  <defs>
    <clipPath id="clip-path">
      <rect width="164.101" height="158.101" fill="none"/>
    </clipPath>
  </defs>
  <g id="img-header-squares-sans-play" clip-path="url(#clip-path)">
    <g id="img-header-squares-sans-play-2" data-name="img-header-squares-sans-play">
      <rect id="Rectangle_27" data-name="Rectangle 27" width="4.038" height="4.038" fill="#7a8ae3"/>
      <rect id="Rectangle_28" data-name="Rectangle 28" width="4.038" height="4.038" transform="translate(24.229)" fill="#6791f5"/>
      <rect id="Rectangle_29" data-name="Rectangle 29" width="4.038" height="4.038" transform="translate(48.459)" fill="#6791f5"/>
      <rect id="Rectangle_30" data-name="Rectangle 30" width="4.038" height="4.038" transform="translate(72.688)" fill="#6791f5"/>
      <rect id="Rectangle_31" data-name="Rectangle 31" width="4.038" height="4.038" transform="translate(96.917)" fill="#6791f5"/>
      <rect id="Rectangle_32" data-name="Rectangle 32" width="4.038" height="4.038" transform="translate(121.146)" fill="#6791f5"/>
      <rect id="Rectangle_33" data-name="Rectangle 33" width="4.038" height="4.038" transform="translate(145.375)" fill="#6791f5"/>
      <rect id="Rectangle_34" data-name="Rectangle 34" width="4.038" height="4.038" transform="translate(169.605)" fill="#6791f5"/>
      <rect id="Rectangle_35" data-name="Rectangle 35" width="4.038" height="4.038" transform="translate(218.063)" fill="#6791f5"/>
      <rect id="Rectangle_36" data-name="Rectangle 36" width="4.038" height="4.038" transform="translate(0 24.229)" fill="#8c84d1"/>
      <rect id="Rectangle_37" data-name="Rectangle 37" width="4.038" height="4.038" transform="translate(24.229 24.229)" fill="#6791f5"/>
      <rect id="Rectangle_38" data-name="Rectangle 38" width="4.038" height="4.038" transform="translate(48.459 24.229)" fill="#6791f5"/>
      <rect id="Rectangle_39" data-name="Rectangle 39" width="4.038" height="4.038" transform="translate(72.688 24.229)" fill="#6791f5"/>
      <rect id="Rectangle_40" data-name="Rectangle 40" width="4.038" height="4.038" transform="translate(96.917 24.229)" fill="#6791f5"/>
      <rect id="Rectangle_41" data-name="Rectangle 41" width="4.038" height="4.038" transform="translate(121.146 24.229)" fill="#6791f5"/>
      <rect id="Rectangle_42" data-name="Rectangle 42" width="4.038" height="4.038" transform="translate(145.375 24.229)" fill="#6791f5"/>
      <rect id="Rectangle_43" data-name="Rectangle 43" width="4.038" height="4.038" transform="translate(169.605 24.229)" fill="#6791f5"/>
      <rect id="Rectangle_44" data-name="Rectangle 44" width="4.038" height="4.038" transform="translate(193.834)" fill="#809cd4"/>
      <rect id="Rectangle_45" data-name="Rectangle 45" width="4.038" height="4.038" transform="translate(193.834 24.229)" fill="#99a7b3"/>
      <rect id="Rectangle_46" data-name="Rectangle 46" width="4.038" height="4.038" transform="translate(193.834 48.459)" fill="#b3b293"/>
      <rect id="Rectangle_47" data-name="Rectangle 47" width="4.038" height="4.038" transform="translate(169.605 48.459)" fill="#ccbd72"/>
      <rect id="Rectangle_48" data-name="Rectangle 48" width="4.038" height="4.038" transform="translate(145.375 48.459)" fill="#e5c851"/>
      <rect id="Rectangle_49" data-name="Rectangle 49" width="4.038" height="4.038" transform="translate(145.375 72.688)" fill="#fed330"/>
      <path id="Path_15" data-name="Path 15" d="M301.955,76.824V52.595h48.459V4.136" transform="translate(-154.56 -2.117)" fill="none"/>
      <rect id="Rectangle_50" data-name="Rectangle 50" width="4.038" height="4.038" transform="translate(218.063 24.229)" fill="#6791f5"/>
      <rect id="Rectangle_51" data-name="Rectangle 51" width="4.038" height="4.038" transform="translate(0 48.459)" fill="#9f7dbf"/>
      <rect id="Rectangle_52" data-name="Rectangle 52" width="4.038" height="4.038" transform="translate(24.229 48.459)" fill="#b277ad"/>
      <rect id="Rectangle_53" data-name="Rectangle 53" width="4.038" height="4.038" transform="translate(48.459 48.459)" fill="#6791f5"/>
      <rect id="Rectangle_54" data-name="Rectangle 54" width="4.038" height="4.038" transform="translate(72.688 48.459)" fill="#6791f5"/>
      <rect id="Rectangle_55" data-name="Rectangle 55" width="4.038" height="4.038" transform="translate(96.917 48.459)" fill="#6791f5"/>
      <rect id="Rectangle_56" data-name="Rectangle 56" width="4.038" height="4.038" transform="translate(121.146 48.459)" fill="#6791f5"/>
      <rect id="Rectangle_57" data-name="Rectangle 57" width="4.038" height="4.038" transform="translate(218.063 48.459)" fill="#6791f5"/>
      <rect id="Rectangle_58" data-name="Rectangle 58" width="4.038" height="4.038" transform="translate(0 72.688)" fill="#6791f5"/>
      <rect id="Rectangle_59" data-name="Rectangle 59" width="4.038" height="4.038" transform="translate(24.229 72.688)" fill="#c4709b"/>
      <rect id="Rectangle_60" data-name="Rectangle 60" width="4.038" height="4.038" transform="translate(48.459 72.688)" fill="#d76989"/>
      <rect id="Rectangle_61" data-name="Rectangle 61" width="4.038" height="4.038" transform="translate(72.688 72.688)" fill="#6791f5"/>
      <rect id="Rectangle_62" data-name="Rectangle 62" width="4.038" height="4.038" transform="translate(96.917 72.688)" fill="#6791f5"/>
      <rect id="Rectangle_63" data-name="Rectangle 63" width="4.038" height="4.038" transform="translate(121.146 72.688)" fill="#6791f5"/>
      <rect id="Rectangle_64" data-name="Rectangle 64" width="4.038" height="4.038" transform="translate(96.917 96.917)" fill="#6791f5"/>
      <rect id="Rectangle_65" data-name="Rectangle 65" width="4.038" height="4.038" transform="translate(121.146 96.917)" fill="#6791f5"/>
      <rect id="Rectangle_66" data-name="Rectangle 66" width="4.038" height="4.038" transform="translate(96.917 121.146)" fill="#6791f5"/>
      <rect id="Rectangle_67" data-name="Rectangle 67" width="4.038" height="4.038" transform="translate(121.146 121.146)" fill="#6791f5"/>
      <rect id="Rectangle_68" data-name="Rectangle 68" width="4.038" height="4.038" transform="translate(169.605 72.688)" fill="#6791f5"/>
      <rect id="Rectangle_69" data-name="Rectangle 69" width="4.038" height="4.038" transform="translate(193.834 72.688)" fill="#6791f5"/>
      <rect id="Rectangle_70" data-name="Rectangle 70" width="4.038" height="4.038" transform="translate(218.063 72.688)" fill="#6791f5"/>
      <rect id="Rectangle_71" data-name="Rectangle 71" width="4.038" height="4.038" transform="translate(0 96.917)" fill="#6791f5"/>
      <rect id="Rectangle_72" data-name="Rectangle 72" width="4.038" height="4.038" transform="translate(24.229 96.917)" fill="#6791f5"/>
      <rect id="Rectangle_73" data-name="Rectangle 73" width="4.038" height="4.038" transform="translate(48.459 96.917)" fill="#e96377"/>
      <rect id="Rectangle_74" data-name="Rectangle 74" width="4.038" height="4.038" transform="translate(72.688 96.917)" fill="#fc5c65"/>
      <rect id="Rectangle_75" data-name="Rectangle 75" width="4.038" height="4.038" transform="translate(145.375 96.917)" fill="#6791f5"/>
      <rect id="Rectangle_76" data-name="Rectangle 76" width="4.038" height="4.038" transform="translate(169.605 96.917)" fill="#6791f5"/>
      <rect id="Rectangle_77" data-name="Rectangle 77" width="4.038" height="4.038" transform="translate(193.834 96.917)" fill="#6791f5"/>
      <rect id="Rectangle_78" data-name="Rectangle 78" width="4.038" height="4.038" transform="translate(218.063 96.917)" fill="#6791f5"/>
      <rect id="Rectangle_79" data-name="Rectangle 79" width="4.038" height="4.038" transform="translate(0 121.146)" fill="#6791f5"/>
      <rect id="Rectangle_80" data-name="Rectangle 80" width="4.038" height="4.038" transform="translate(24.229 121.146)" fill="#6791f5"/>
      <rect id="Rectangle_81" data-name="Rectangle 81" width="4.038" height="4.038" transform="translate(48.459 121.146)" fill="#6791f5"/>
      <rect id="Rectangle_82" data-name="Rectangle 82" width="4.038" height="4.038" transform="translate(72.688 121.146)" fill="#6791f5"/>
      <rect id="Rectangle_83" data-name="Rectangle 83" width="4.038" height="4.038" transform="translate(145.375 121.146)" fill="#6791f5"/>
      <rect id="Rectangle_84" data-name="Rectangle 84" width="4.038" height="4.038" transform="translate(169.605 121.146)" fill="#6791f5"/>
      <rect id="Rectangle_85" data-name="Rectangle 85" width="4.038" height="4.038" transform="translate(193.834 121.146)" fill="#6791f5"/>
      <rect id="Rectangle_86" data-name="Rectangle 86" width="4.038" height="4.038" transform="translate(218.063 121.146)" fill="#6791f5"/>
      <rect id="Rectangle_87" data-name="Rectangle 87" width="4.038" height="4.038" transform="translate(0 145.375)" fill="#6791f5"/>
      <rect id="Rectangle_88" data-name="Rectangle 88" width="4.038" height="4.038" transform="translate(24.229 145.375)" fill="#6791f5"/>
      <rect id="Rectangle_89" data-name="Rectangle 89" width="4.038" height="4.038" transform="translate(48.459 145.375)" fill="#6791f5"/>
      <rect id="Rectangle_90" data-name="Rectangle 90" width="4.038" height="4.038" transform="translate(72.688 145.375)" fill="#a55eea"/>
      <rect id="Rectangle_91" data-name="Rectangle 91" width="4.038" height="4.038" transform="translate(96.917 145.375)" fill="#6791f5"/>
      <rect id="Rectangle_92" data-name="Rectangle 92" width="4.038" height="4.038" transform="translate(145.375 145.375)" fill="#6791f5"/>
      <rect id="Rectangle_93" data-name="Rectangle 93" width="4.038" height="4.038" transform="translate(169.605 145.375)" fill="#6791f5"/>
      <rect id="Rectangle_94" data-name="Rectangle 94" width="4.038" height="4.038" transform="translate(193.834 145.375)" fill="#6791f5"/>
      <rect id="Rectangle_95" data-name="Rectangle 95" width="4.038" height="4.038" transform="translate(218.063 145.375)" fill="#6791f5"/>
      <rect id="Rectangle_96" data-name="Rectangle 96" width="4.038" height="4.038" transform="translate(0 169.605)" fill="#6791f5"/>
      <rect id="Rectangle_97" data-name="Rectangle 97" width="4.038" height="4.038" transform="translate(24.229 169.605)" fill="#8e71ee"/>
      <rect id="Rectangle_98" data-name="Rectangle 98" width="4.038" height="4.038" transform="translate(48.459 169.605)" fill="#966bed"/>
      <rect id="Rectangle_99" data-name="Rectangle 99" width="4.038" height="4.038" transform="translate(72.688 169.605)" fill="#9d64eb"/>
      <rect id="Rectangle_100" data-name="Rectangle 100" width="4.038" height="4.038" transform="translate(96.917 169.605)" fill="#6791f5"/>
      <rect id="Rectangle_101" data-name="Rectangle 101" width="4.038" height="4.038" transform="translate(121.146 145.375)" fill="#fd9644"/>
      <rect id="Rectangle_102" data-name="Rectangle 102" width="4.038" height="4.038" transform="translate(121.146 169.605)" fill="#e8955d"/>
      <rect id="Rectangle_103" data-name="Rectangle 103" width="4.038" height="4.038" transform="translate(145.375 169.605)" fill="#d29577"/>
      <rect id="Rectangle_104" data-name="Rectangle 104" width="4.038" height="4.038" transform="translate(145.375 193.834)" fill="#bd9490"/>
      <rect id="Rectangle_105" data-name="Rectangle 105" width="4.038" height="4.038" transform="translate(169.605 193.834)" fill="#a793a9"/>
      <rect id="Rectangle_106" data-name="Rectangle 106" width="4.038" height="4.038" transform="translate(193.834 193.834)" fill="#9292c2"/>
      <rect id="Rectangle_107" data-name="Rectangle 107" width="4.038" height="4.038" transform="translate(193.834 218.063)" fill="#7c92dc"/>
      <path id="Path_16" data-name="Path 16" d="M325.006,374.643v-24.23H276.548V326.184h-24.23V301.955" transform="translate(-129.153 -154.56)" fill="none"/>
      <rect id="Rectangle_108" data-name="Rectangle 108" width="4.038" height="4.038" transform="translate(169.605 169.605)" fill="#6791f5"/>
      <rect id="Rectangle_109" data-name="Rectangle 109" width="4.038" height="4.038" transform="translate(193.834 169.605)" fill="#6791f5"/>
      <rect id="Rectangle_110" data-name="Rectangle 110" width="4.038" height="4.038" transform="translate(218.063 169.605)" fill="#6791f5"/>
      <rect id="Rectangle_111" data-name="Rectangle 111" width="4.038" height="4.038" transform="translate(0 193.834)" fill="#6791f5"/>
      <rect id="Rectangle_112" data-name="Rectangle 112" width="4.038" height="4.038" transform="translate(24.229 193.834)" fill="#8678f0"/>
      <rect id="Rectangle_113" data-name="Rectangle 113" width="4.038" height="4.038" transform="translate(48.459 193.834)" fill="#6791f5"/>
      <rect id="Rectangle_114" data-name="Rectangle 114" width="4.038" height="4.038" transform="translate(72.688 193.834)" fill="#6791f5"/>
      <rect id="Rectangle_115" data-name="Rectangle 115" width="4.038" height="4.038" transform="translate(96.917 193.834)" fill="#6791f5"/>
      <rect id="Rectangle_116" data-name="Rectangle 116" width="4.038" height="4.038" transform="translate(121.146 193.834)" fill="#6791f5"/>
      <rect id="Rectangle_117" data-name="Rectangle 117" width="4.038" height="4.038" transform="translate(218.063 193.834)" fill="#6791f5"/>
      <rect id="Rectangle_118" data-name="Rectangle 118" width="4.038" height="4.038" transform="translate(0 218.063)" fill="#6791f5"/>
      <rect id="Rectangle_119" data-name="Rectangle 119" width="4.038" height="4.038" transform="translate(24.229 218.063)" fill="#7e7ef1"/>
      <rect id="Rectangle_120" data-name="Rectangle 120" width="4.038" height="4.038" transform="translate(48.459 218.063)" fill="#6791f5"/>
      <rect id="Rectangle_121" data-name="Rectangle 121" width="4.038" height="4.038" transform="translate(72.688 218.063)" fill="#6791f5"/>
      <rect id="Rectangle_122" data-name="Rectangle 122" width="4.038" height="4.038" transform="translate(96.917 218.063)" fill="#6791f5"/>
      <rect id="Rectangle_123" data-name="Rectangle 123" width="4.038" height="4.038" transform="translate(121.146 218.063)" fill="#6791f5"/>
      <rect id="Rectangle_124" data-name="Rectangle 124" width="4.038" height="4.038" transform="translate(145.375 218.063)" fill="#6791f5"/>
      <rect id="Rectangle_125" data-name="Rectangle 125" width="4.038" height="4.038" transform="translate(169.605 218.063)" fill="#6791f5"/>
      <rect id="Rectangle_126" data-name="Rectangle 126" width="4.038" height="4.038" transform="translate(218.063 218.063)" fill="#6791f5"/>
    </g>
  </g>
</svg>
