<?xml version="1.0" standalone="no"?>
<!DOCTYPE svg PUBLIC "-//W3C//DTD SVG 20010904//EN"
 "http://www.w3.org/TR/2001/REC-SVG-20010904/DTD/svg10.dtd">
<svg version="1.0" xmlns="http://www.w3.org/2000/svg"
 width="260.000000pt" height="260.000000pt" viewBox="0 0 260.000000 260.000000"
 preserveAspectRatio="xMidYMid meet">
<metadata>
Created by potrace 1.14, written by Peter Selinger 2001-2017
</metadata>
<g transform="translate(0.000000,260.000000) scale(0.100000,-0.100000)"
fill="#000000" stroke="none">
<path d="M1169 2536 c-2 -2 -31 -7 -63 -11 -154 -17 -359 -91 -503 -181 -292
-182 -495 -481 -558 -824 -16 -86 -15 -314 1 -409 42 -250 152 -467 327 -644
88 -90 139 -131 240 -192 110 -66 232 -115 377 -150 9 -3 74 -15 105 -20 75
-13 249 -16 339 -6 179 20 358 78 506 162 58 33 73 37 84 27 14 -13 131 -119
201 -182 l40 -36 67 72 c96 103 123 161 123 263 -1 88 -20 141 -74 204 l-29
34 23 31 c59 80 131 256 161 396 19 90 26 339 12 435 -68 464 -401 839 -871
981 -43 13 -95 26 -115 29 -21 3 -49 8 -62 11 -28 7 -325 15 -331 10z m270
-601 c216 -51 391 -237 447 -476 22 -95 7 -340 -24 -371 -10 -10 -96 62 -267
224 -22 21 -47 37 -55 37 -8 0 -48 -39 -88 -87 -113 -135 -136 -242 -77 -370
21 -47 126 -161 148 -162 4 0 7 -6 7 -13 0 -9 -23 -19 -57 -27 -235 -53 -437
-4 -584 143 -127 127 -192 289 -191 477 1 158 47 302 137 422 66 90 189 171
307 202 70 19 217 19 297 1z"/>
</g>
</svg>
